<svg xmlns="http://www.w3.org/2000/svg" viewBox="0 0 129.89 109.82"><defs><style>.cls-1{fill:#f47a62;}.cls-2{fill:#fff;}</style></defs><title>ax</title><g id="Layer_2" data-name="Layer 2"><g id="Layer_1-2" data-name="Layer 1"><path class="cls-1" d="M129.89,28.76c-.17.74-.34,1.47-.52,2.21-1.26,5.06-4.16,9.11-7.82,12.69a59,59,0,0,1-16.67,11,1.58,1.58,0,0,1-1.36-.15Q91.2,45,78.93,35.37L67.25,26.25c-.24-.19-.46-.41-.78-.68L86.4,0c1.26.89,2.46,1.73,3.65,2.59A228.51,228.51,0,0,0,114,17.79a53.48,53.48,0,0,0,12.57,5.28,12.47,12.47,0,0,0,1.83.34,1.42,1.42,0,0,1,1.49,1.2Zm-4.75-3.17-.26.95a26.05,26.05,0,0,1-4.74,9.25,46,46,0,0,1-16,12.58c-.75.38-1.48.78-2.25,1.19,1.12,1.16,1.2,1.17,2.57.49,5.84-2.87,11.26-6.31,15.69-11.15a25.18,25.18,0,0,0,6.33-11.23C126.88,26.07,126.87,26.06,125.14,25.59Z"/><path class="cls-1" d="M0,97.23c1-2.87,3.21-4.48,5.74-5.79A79.25,79.25,0,0,0,20.34,81.3a192.49,192.49,0,0,0,22.1-22.53c6.66-7.81,12.83-16,18.76-24.35,1.59-2.25,3.13-4.54,4.75-6.89l8.77,6.84-3.55,4.52L57.94,55.64,46,70.65,33,87.14q-6.59,8.32-13.19,16.64a38.68,38.68,0,0,1-3.25,3.88A7.62,7.62,0,0,1,6,107.76c-2.6-2.32-4.88-4.86-6-8.24Z"/><path class="cls-2" d="M125.14,25.59c1.73.47,1.74.47,1.37,2.07a25.18,25.18,0,0,1-6.33,11.23c-4.43,4.84-9.86,8.28-15.69,11.15-1.37.67-1.45.67-2.57-.49.77-.41,1.51-.81,2.25-1.19a46,46,0,0,0,16-12.58,26.05,26.05,0,0,0,4.74-9.25Z"/></g></g></svg>