<svg xmlns="http://www.w3.org/2000/svg" viewBox="0 0 1069.92 1793.31"><defs><style>.cls-1{fill:#013f72;}.cls-2{opacity:0.1;}.cls-3{fill:#fff;}.cls-4{fill:#0386f2;}</style></defs><title>background</title><g id="Layer_2" data-name="Layer 2"><g id="Layer_1-2" data-name="Layer 1"><rect class="cls-1" width="1069.57" height="1009.31"/><rect class="cls-1" y="911.65" width="1069.57" height="881.65"/><g class="cls-2"><path class="cls-3" d="M397.93,558.12h-53c-.84,0-1.67,0-2.51,0-2.25,0-4.69-.36-4.17-3.75.22-1.43,2.51-2.58,4-3.47.78-.46,1.92-.08,2.89-.08q53,0,106.09,0c8.29,0,13.84-6.61,13.38-15.7-.28-5.44-3.85-10-8.1-10.38-3.85-.33-5.85,2.15-7.4,8.18-.38,1.46-2.11,2.42-3.22,3.61-.82-1.52-2.26-3-2.35-4.58-.32-5.56,3.25-11.49,7.72-13.64,5-2.41,11.41-.49,15.22,4.71,4.49,6.12,5.07,13.22,2.92,20.6-2.27,7.81-6.85,12.82-13.82,14.2a27.94,27.94,0,0,1-5.42.3Q424,558.14,397.93,558.12Z"/><path class="cls-3" d="M383.62,544.25q-15.87,0-31.74,0c-2.3,0-4.94.16-5-3.53-.07-4,2.67-3.89,5.13-3.88q31.12,0,62.23,0c7,0,12.1-5.1,13.15-13,1-7.36-4.09-14.24-9.85-13.25-3.51.6-5.41,3.37-5.75,7.42-.31,3.72,1.54,5.57,4.37,6.86,1.28.58,2.06,2.75,3.07,4.2-1.52.92-3.09,2.71-4.56,2.61-4.47-.31-8.15-5.37-8.71-11.11-.72-7.34,2.76-14.32,8.31-16.71,8.88-3.81,18.56,4.85,19,17,.51,12.84-7.52,23.18-18.37,23.35C404.51,544.37,394.07,544.25,383.62,544.25Z"/><path class="cls-3" d="M396.13,566.86c12.39,0,24.77-.08,37.16,0,8.19.07,13.83,8,12.65,17.51-.73,5.95-5.16,11-9.56,10.51-1.1-.12-2.88-1.54-2.94-2.5-.1-1.41.85-4,1.73-4.25,3.54-1,5.7-3.11,4.87-7.63-.89-4.88-4-6.31-7.88-6.3q-35.7.09-71.4,0c-.84,0-1.67,0-2.51,0-2.29.07-4.41-.38-4.28-3.85s2.34-3.58,4.57-3.56c6.26,0,12.53,0,18.79,0Z"/></g><g class="cls-2"><path class="cls-3" d="M82,554.53H29c-.84,0-1.67,0-2.51,0-2.25,0-4.69-.36-4.17-3.75.22-1.43,2.51-2.58,4-3.47.78-.46,1.92-.08,2.89-.08q53,0,106.09,0c8.29,0,13.84-6.61,13.38-15.7-.28-5.44-3.85-10-8.1-10.38-3.85-.33-5.85,2.15-7.4,8.18-.38,1.46-2.11,2.42-3.22,3.61-.82-1.52-2.26-3-2.35-4.58-.32-5.56,3.25-11.49,7.72-13.64,5-2.41,11.41-.49,15.22,4.71,4.49,6.12,5.07,13.22,2.92,20.6-2.27,7.81-6.85,12.82-13.82,14.2a27.94,27.94,0,0,1-5.42.3Q108.13,554.55,82,554.53Z"/><path class="cls-3" d="M67.72,540.66q-15.87,0-31.74,0c-2.3,0-4.94.16-5-3.53-.07-4,2.67-3.89,5.13-3.88q31.12,0,62.23,0c7,0,12.1-5.1,13.15-13,1-7.36-4.09-14.24-9.85-13.25-3.51.6-5.41,3.37-5.75,7.42-.31,3.72,1.54,5.57,4.37,6.86,1.28.58,2.06,2.75,3.07,4.2-1.52.92-3.09,2.71-4.56,2.61-4.47-.31-8.15-5.37-8.71-11.11-.72-7.34,2.76-14.32,8.31-16.71,8.88-3.81,18.56,4.85,19,17,.51,12.84-7.52,23.18-18.37,23.35C88.61,540.78,78.16,540.65,67.72,540.66Z"/><path class="cls-3" d="M80.23,563.27c12.39,0,24.77-.08,37.16,0,8.19.07,13.83,8,12.65,17.51-.73,5.95-5.16,11-9.56,10.51-1.1-.12-2.88-1.54-2.94-2.5-.1-1.41.85-4,1.73-4.25,3.54-1,5.7-3.11,4.87-7.63-.89-4.88-4-6.31-7.88-6.3q-35.7.09-71.4,0c-.84,0-1.67,0-2.51,0-2.29.07-4.41-.38-4.28-3.85s2.34-3.58,4.57-3.56c6.26,0,12.53,0,18.79,0Z"/></g><g class="cls-2"><path class="cls-3" d="M750.13,554.53h-53c-.84,0-1.67,0-2.51,0-2.25,0-4.69-.36-4.17-3.75.22-1.43,2.51-2.58,4-3.47.78-.46,1.92-.08,2.89-.08q53,0,106.09,0c8.29,0,13.84-6.61,13.38-15.7-.28-5.44-3.85-10-8.1-10.38-3.85-.33-5.85,2.15-7.4,8.18-.38,1.46-2.11,2.42-3.22,3.61-.82-1.52-2.26-3-2.35-4.58-.32-5.56,3.25-11.49,7.72-13.64,5-2.41,11.41-.49,15.22,4.71,4.49,6.12,5.07,13.22,2.92,20.6-2.27,7.81-6.85,12.82-13.82,14.2a27.94,27.94,0,0,1-5.42.3Q776.24,554.55,750.13,554.53Z"/><path class="cls-3" d="M735.83,540.66q-15.87,0-31.74,0c-2.3,0-4.94.16-5-3.53-.07-4,2.67-3.89,5.13-3.88q31.12,0,62.23,0c7,0,12.1-5.1,13.15-13,1-7.36-4.09-14.24-9.85-13.25-3.51.6-5.41,3.37-5.75,7.42-.31,3.72,1.54,5.57,4.37,6.86,1.28.58,2.06,2.75,3.07,4.2-1.52.92-3.09,2.71-4.56,2.61-4.47-.31-8.15-5.37-8.71-11.11-.72-7.34,2.76-14.32,8.31-16.71,8.88-3.81,18.56,4.85,19,17,.51,12.84-7.52,23.18-18.37,23.35C756.71,540.78,746.27,540.65,735.83,540.66Z"/><path class="cls-3" d="M748.33,563.27c12.39,0,24.77-.08,37.16,0,8.19.07,13.83,8,12.65,17.51-.73,5.95-5.16,11-9.56,10.51-1.1-.12-2.88-1.54-2.94-2.5-.1-1.41.85-4,1.73-4.25,3.54-1,5.7-3.11,4.87-7.63-.89-4.88-4-6.31-7.88-6.3q-35.7.09-71.4,0c-.84,0-1.67,0-2.51,0-2.29.07-4.41-.38-4.28-3.85s2.34-3.58,4.57-3.56c6.26,0,12.53,0,18.79,0Z"/></g><g class="cls-2"><path class="cls-3" d="M229.07,817.21H176c-.84,0-1.67,0-2.51,0-2.25,0-4.69-.36-4.17-3.75.22-1.43,2.51-2.58,4-3.47.78-.46,1.92-.08,2.89-.08q53,0,106.09,0c8.29,0,13.84-6.61,13.38-15.7-.28-5.44-3.85-10-8.1-10.38-3.85-.33-5.85,2.15-7.4,8.18-.38,1.46-2.11,2.42-3.22,3.61-.82-1.52-2.26-3-2.35-4.58-.32-5.56,3.25-11.49,7.72-13.64,5-2.41,11.41-.49,15.22,4.71,4.49,6.12,5.07,13.22,2.92,20.6-2.27,7.81-6.85,12.82-13.82,14.2a27.94,27.94,0,0,1-5.42.3Q255.17,817.23,229.07,817.21Z"/><path class="cls-3" d="M214.76,803.34q-15.87,0-31.74,0c-2.3,0-4.94.16-5-3.53-.07-4,2.67-3.89,5.13-3.88q31.12,0,62.23,0c7,0,12.1-5.1,13.15-13,1-7.36-4.09-14.24-9.85-13.25-3.51.6-5.41,3.37-5.75,7.42-.31,3.72,1.54,5.57,4.37,6.86,1.28.58,2.06,2.75,3.07,4.2-1.52.92-3.09,2.71-4.56,2.61-4.47-.31-8.15-5.37-8.71-11.11-.72-7.34,2.76-14.32,8.31-16.71,8.88-3.81,18.56,4.85,19,17,.51,12.84-7.52,23.18-18.37,23.35C235.65,803.46,225.21,803.34,214.76,803.34Z"/><path class="cls-3" d="M227.27,825.95c12.39,0,24.77-.08,37.16,0,8.19.07,13.83,8,12.65,17.51-.73,5.95-5.16,11-9.56,10.51-1.1-.12-2.88-1.54-2.94-2.5-.1-1.41.85-4,1.73-4.25,3.54-1,5.7-3.11,4.87-7.63-.89-4.88-4-6.31-7.88-6.3q-35.7.09-71.4,0c-.84,0-1.67,0-2.51,0-2.29.07-4.41-.38-4.28-3.85s2.34-3.58,4.57-3.56c6.26,0,12.53,0,18.79,0Z"/></g><g class="cls-2"><path class="cls-3" d="M897.18,817.21h-53c-.84,0-1.67,0-2.51,0-2.25,0-4.69-.36-4.17-3.75.22-1.43,2.51-2.58,4-3.47.78-.46,1.92-.08,2.89-.08q53,0,106.09,0c8.29,0,13.84-6.61,13.38-15.7-.28-5.44-3.85-10-8.1-10.38-3.85-.33-5.85,2.15-7.4,8.18-.38,1.46-2.11,2.42-3.22,3.61-.82-1.52-2.26-3-2.35-4.58-.32-5.56,3.25-11.49,7.72-13.64,5-2.41,11.41-.49,15.22,4.71,4.49,6.12,5.07,13.22,2.92,20.6-2.27,7.81-6.85,12.82-13.82,14.2a27.94,27.94,0,0,1-5.42.3Q923.28,817.23,897.18,817.21Z"/><path class="cls-3" d="M882.87,803.34q-15.87,0-31.74,0c-2.3,0-4.94.16-5-3.53-.07-4,2.67-3.89,5.13-3.88q31.12,0,62.23,0c7,0,12.1-5.1,13.15-13,1-7.36-4.09-14.24-9.85-13.25-3.51.6-5.41,3.37-5.75,7.42-.31,3.72,1.54,5.57,4.37,6.86,1.28.58,2.06,2.75,3.07,4.2-1.52.92-3.09,2.71-4.56,2.61-4.47-.31-8.15-5.37-8.71-11.11-.72-7.34,2.76-14.32,8.31-16.71,8.88-3.81,18.56,4.85,19,17,.51,12.84-7.52,23.18-18.37,23.35C903.76,803.46,893.31,803.34,882.87,803.34Z"/><path class="cls-3" d="M895.38,825.95c12.39,0,24.77-.08,37.16,0,8.19.07,13.83,8,12.65,17.51-.73,5.95-5.16,11-9.56,10.51-1.1-.12-2.88-1.54-2.94-2.5-.1-1.41.85-4,1.73-4.25,3.54-1,5.7-3.11,4.87-7.63-.89-4.88-4-6.31-7.88-6.3q-35.7.09-71.4,0c-.84,0-1.67,0-2.51,0-2.29.07-4.41-.38-4.28-3.85s2.34-3.58,4.57-3.56c6.26,0,12.53,0,18.79,0Z"/></g><g class="cls-2"><path class="cls-3" d="M581.27,813.62h-53c-.84,0-1.67,0-2.51,0-2.25,0-4.69-.36-4.17-3.75.22-1.43,2.51-2.58,4-3.47.78-.46,1.92-.08,2.89-.08q53,0,106.09,0c8.29,0,13.84-6.61,13.38-15.7-.28-5.44-3.85-10-8.1-10.38-3.85-.33-5.85,2.15-7.4,8.18-.38,1.46-2.11,2.42-3.22,3.61-.82-1.52-2.26-3-2.35-4.58-.32-5.56,3.25-11.49,7.72-13.64,5-2.41,11.41-.49,15.22,4.71,4.49,6.12,5.07,13.22,2.92,20.6-2.27,7.81-6.85,12.82-13.82,14.2a27.94,27.94,0,0,1-5.42.3Q607.38,813.64,581.27,813.62Z"/><path class="cls-3" d="M567,799.75q-15.87,0-31.74,0c-2.3,0-4.94.16-5-3.53-.07-4,2.67-3.89,5.13-3.88q31.12,0,62.23,0c7,0,12.1-5.1,13.15-13,1-7.36-4.09-14.24-9.85-13.25-3.51.6-5.41,3.37-5.75,7.42-.31,3.72,1.54,5.57,4.37,6.86,1.28.58,2.06,2.75,3.07,4.2-1.52.92-3.09,2.71-4.56,2.61-4.47-.31-8.15-5.37-8.71-11.11-.72-7.34,2.76-14.32,8.31-16.71,8.88-3.81,18.56,4.85,19,17,.51,12.84-7.52,23.18-18.37,23.35C587.85,799.87,577.41,799.75,567,799.75Z"/><path class="cls-3" d="M579.47,822.36c12.39,0,24.77-.08,37.16,0,8.19.07,13.83,8,12.65,17.51-.73,5.95-5.16,11-9.56,10.51-1.1-.12-2.88-1.54-2.94-2.5-.1-1.41.85-4,1.73-4.25,3.54-1,5.7-3.11,4.87-7.63-.89-4.88-4-6.31-7.88-6.3q-35.7.09-71.4,0c-.84,0-1.67,0-2.51,0-2.29.07-4.41-.38-4.28-3.85s2.34-3.58,4.57-3.56c6.26,0,12.53,0,18.79,0Z"/></g><g class="cls-2"><path class="cls-3" d="M229.07,286.15H176c-.84,0-1.67,0-2.51,0-2.25,0-4.69-.36-4.17-3.75.22-1.43,2.51-2.58,4-3.47.78-.46,1.92-.08,2.89-.08q53,0,106.09,0c8.29,0,13.84-6.61,13.38-15.7-.28-5.44-3.85-10-8.1-10.38-3.85-.33-5.85,2.15-7.4,8.18-.38,1.46-2.11,2.42-3.22,3.61-.82-1.52-2.26-3-2.35-4.58-.32-5.56,3.25-11.49,7.72-13.64,5-2.41,11.41-.49,15.22,4.71,4.49,6.12,5.07,13.22,2.92,20.6-2.27,7.81-6.85,12.82-13.82,14.2a27.94,27.94,0,0,1-5.42.3Q255.17,286.17,229.07,286.15Z"/><path class="cls-3" d="M214.76,272.28q-15.87,0-31.74,0c-2.3,0-4.94.16-5-3.53-.07-4,2.67-3.89,5.13-3.88q31.12,0,62.23,0c7,0,12.1-5.1,13.15-13,1-7.36-4.09-14.24-9.85-13.25-3.51.6-5.41,3.37-5.75,7.42-.31,3.72,1.54,5.57,4.37,6.86,1.28.58,2.06,2.75,3.07,4.2-1.52.92-3.09,2.71-4.56,2.61-4.47-.31-8.15-5.37-8.71-11.11-.72-7.34,2.76-14.32,8.31-16.71,8.88-3.81,18.56,4.85,19,17,.51,12.84-7.52,23.18-18.37,23.35C235.65,272.4,225.21,272.28,214.76,272.28Z"/><path class="cls-3" d="M227.27,294.89c12.39,0,24.77-.08,37.16,0,8.19.07,13.83,8,12.65,17.51-.73,5.95-5.16,11-9.56,10.51-1.1-.12-2.88-1.54-2.94-2.5-.1-1.41.85-4,1.73-4.25,3.54-1,5.7-3.11,4.87-7.63-.89-4.88-4-6.31-7.88-6.3q-35.7.09-71.4,0c-.84,0-1.67,0-2.51,0-2.29.07-4.41-.38-4.28-3.85s2.34-3.58,4.57-3.56c6.26,0,12.53,0,18.79,0Z"/></g><g class="cls-2"><path class="cls-3" d="M897.18,286.15h-53c-.84,0-1.67,0-2.51,0-2.25,0-4.69-.36-4.17-3.75.22-1.43,2.51-2.58,4-3.47.78-.46,1.92-.08,2.89-.08q53,0,106.09,0c8.29,0,13.84-6.61,13.38-15.7-.28-5.44-3.85-10-8.1-10.38-3.85-.33-5.85,2.15-7.4,8.18-.38,1.46-2.11,2.42-3.22,3.61-.82-1.52-2.26-3-2.35-4.58-.32-5.56,3.25-11.49,7.72-13.64,5-2.41,11.41-.49,15.22,4.71,4.49,6.12,5.07,13.22,2.92,20.6-2.27,7.81-6.85,12.82-13.82,14.2a27.94,27.94,0,0,1-5.42.3Q923.28,286.17,897.18,286.15Z"/><path class="cls-3" d="M882.87,272.28q-15.87,0-31.74,0c-2.3,0-4.94.16-5-3.53-.07-4,2.67-3.89,5.13-3.88q31.12,0,62.23,0c7,0,12.1-5.1,13.15-13,1-7.36-4.09-14.24-9.85-13.25-3.51.6-5.41,3.37-5.75,7.42-.31,3.72,1.54,5.57,4.37,6.86,1.28.58,2.06,2.75,3.07,4.2-1.52.92-3.09,2.71-4.56,2.61-4.47-.31-8.15-5.37-8.71-11.11-.72-7.34,2.76-14.32,8.31-16.71,8.88-3.81,18.56,4.85,19,17,.51,12.84-7.52,23.18-18.37,23.35C903.76,272.4,893.31,272.28,882.87,272.28Z"/><path class="cls-3" d="M895.38,294.89c12.39,0,24.77-.08,37.16,0,8.19.07,13.83,8,12.65,17.51-.73,5.95-5.16,11-9.56,10.51-1.1-.12-2.88-1.54-2.94-2.5-.1-1.41.85-4,1.73-4.25,3.54-1,5.7-3.11,4.87-7.63-.89-4.88-4-6.31-7.88-6.3q-35.7.09-71.4,0c-.84,0-1.67,0-2.51,0-2.29.07-4.41-.38-4.28-3.85s2.34-3.58,4.57-3.56c6.26,0,12.53,0,18.79,0Z"/></g><g class="cls-2"><path class="cls-3" d="M581.27,282.56h-53c-.84,0-1.67,0-2.51,0-2.25,0-4.69-.36-4.17-3.75.22-1.43,2.51-2.58,4-3.47.78-.46,1.92-.08,2.89-.08q53,0,106.09,0c8.29,0,13.84-6.61,13.38-15.7-.28-5.44-3.85-10-8.1-10.38-3.85-.33-5.85,2.15-7.4,8.18-.38,1.46-2.11,2.42-3.22,3.61-.82-1.52-2.26-3-2.35-4.58-.32-5.56,3.25-11.49,7.72-13.64,5-2.41,11.41-.49,15.22,4.71,4.49,6.12,5.07,13.22,2.92,20.6-2.27,7.81-6.85,12.82-13.82,14.2a27.94,27.94,0,0,1-5.42.3Q607.38,282.58,581.27,282.56Z"/><path class="cls-3" d="M567,268.69q-15.87,0-31.74,0c-2.3,0-4.94.16-5-3.53-.07-4,2.67-3.89,5.13-3.88q31.12,0,62.23,0c7,0,12.1-5.1,13.15-13,1-7.36-4.09-14.24-9.85-13.25-3.51.6-5.41,3.37-5.75,7.42-.31,3.72,1.54,5.57,4.37,6.86,1.28.58,2.06,2.75,3.07,4.2-1.52.92-3.09,2.71-4.56,2.61-4.47-.31-8.15-5.37-8.71-11.11-.72-7.34,2.76-14.32,8.31-16.71,8.88-3.81,18.56,4.85,19,17,.51,12.84-7.52,23.18-18.37,23.35C587.85,268.81,577.41,268.69,567,268.69Z"/><path class="cls-3" d="M579.47,291.3c12.39,0,24.77-.08,37.16,0,8.19.07,13.83,8,12.65,17.51-.73,5.95-5.16,11-9.56,10.51-1.1-.12-2.88-1.54-2.94-2.5-.1-1.41.85-4,1.73-4.25,3.54-1,5.7-3.11,4.87-7.63-.89-4.88-4-6.31-7.88-6.3q-35.7.09-71.4,0c-.84,0-1.67,0-2.51,0-2.29.07-4.41-.38-4.28-3.85s2.34-3.58,4.57-3.56c6.26,0,12.53,0,18.79,0Z"/></g><rect class="cls-4" x="3.25" y="911.65" width="1064.89" height="97.65"/><rect class="cls-4" x="0.71" width="1069.2" height="209.48"/></g></g></svg>