<svg xmlns="http://www.w3.org/2000/svg" viewBox="0 0 125.26 125.26"><defs><style>.cls-1{fill:#faa258;}</style></defs><title>blade</title><g id="Layer_2" data-name="Layer 2"><g id="Layer_1-2" data-name="Layer 1"><path class="cls-1" d="M125.26,64.75h-3.84L118,67.63l-3.58-3.51,8.76-8-.28-10.82-3.66,1.19-2.4,3.81-4.49-2.23,5.85-10.32-3.61-10.2-3.11,2.26-1.1,4.36-5-.74,2.38-11.62-6.59-8.59L98.9,16.31l.3,4.49-4.95.83L92.91,9.85,84,3.72,82.81,7.37l1.67,4.18L80,13.88,75.12,3.08,64.75,0V3.84L67.63,7.3l-3.51,3.58-8-8.76-10.82.28,1.19,3.66,3.81,2.4L48.05,13,37.73,7.11l-10.2,3.61,2.26,3.11,4.37,1.11-.74,5L21.79,17.52,13.2,24.11l3.11,2.26,4.49-.3L21.64,31,9.85,32.35,3.72,41.26l3.66,1.19,4.18-1.67,2.32,4.45L3.08,50.14,0,60.51H3.84L7.3,57.63l3.58,3.51-8.76,8L2.41,80l3.66-1.19L8.47,75,13,77.21,7.11,87.53l3.61,10.2,3.11-2.26,1.1-4.36,5,.74-2.38,11.62,6.59,8.59,2.26-3.11-.3-4.49,4.95-.83,1.33,11.79,8.92,6.13,1.19-3.66-1.67-4.18,4.45-2.32,4.91,10.8,10.38,3.07v-3.84L57.63,118l3.51-3.58,8,8.75L80,122.85l-1.19-3.66L75,116.8l2.24-4.49,10.32,5.85,10.2-3.61-2.26-3.11-4.36-1.1.74-5,11.62,2.38,8.59-6.59-3.11-2.26-4.49.3-.83-4.95,11.79-1.33L121.54,84l-3.66-1.19-4.18,1.67L111.38,80l10.8-4.91ZM62.63,112A49.4,49.4,0,1,1,112,62.63,49.4,49.4,0,0,1,62.63,112Z"/><circle class="cls-1" cx="62.63" cy="62.63" r="47.19"/></g></g></svg>