<svg xmlns="http://www.w3.org/2000/svg" viewBox="0 0 152.67 152.67"><defs><style>.cls-1{fill:#fff;}.cls-2{fill:#0386f2;}</style></defs><title>bubble-pile</title><g id="Layer_2" data-name="Layer 2"><g id="Layer_1-2" data-name="Layer 1"><path class="cls-1" d="M49.76,96.52A46.76,46.76,0,1,1,96.52,49.76,46.81,46.81,0,0,1,49.76,96.52Z"/><path class="cls-2" d="M49.76,6A43.76,43.76,0,1,1,6,49.76,43.81,43.81,0,0,1,49.76,6m0-6A49.76,49.76,0,1,0,99.52,49.76,49.76,49.76,0,0,0,49.76,0Z"/><path class="cls-1" d="M51.57,17.31S17.82,26,17.82,51.92"/><path class="cls-2" d="M51.57,17.31c-3.5,3.38-6.85,6-10.06,8.62s-6.27,5-9.09,7.51c-1.4,1.25-2.76,2.51-4.06,3.81s-2.51,2.67-3.72,4.11a48.15,48.15,0,0,0-3.45,4.75c-1.16,1.74-2.12,3.66-3.38,5.81a14.87,14.87,0,0,1-1.32-3.41c-.15-.59-.29-1.19-.39-1.8s-.12-1.22-.18-1.84a21.73,21.73,0,0,1,1-7.41,26.19,26.19,0,0,1,3.31-6.76,31,31,0,0,1,4.93-5.52,34.28,34.28,0,0,1,12.4-6.92,33.44,33.44,0,0,1,6.88-1.35A22.93,22.93,0,0,1,51.57,17.31Z"/><path class="cls-1" d="M102.91,149.67a46.76,46.76,0,1,1,46.76-46.76A46.81,46.81,0,0,1,102.91,149.67Z"/><path class="cls-2" d="M102.91,59.15a43.76,43.76,0,1,1-43.76,43.76,43.81,43.81,0,0,1,43.76-43.76m0-6a49.76,49.76,0,1,0,49.76,49.76,49.76,49.76,0,0,0-49.76-49.76Z"/><path class="cls-1" d="M104.71,70.45S71,79.11,71,105.07"/><path class="cls-2" d="M104.71,70.45c-3.5,3.38-6.85,6-10.06,8.62s-6.27,5-9.09,7.51c-1.4,1.25-2.76,2.51-4.06,3.81S79,93.07,77.79,94.51a48.13,48.13,0,0,0-3.45,4.75c-1.16,1.74-2.12,3.66-3.38,5.81a14.87,14.87,0,0,1-1.32-3.41c-.15-.59-.29-1.19-.39-1.8s-.12-1.22-.18-1.84a21.73,21.73,0,0,1,1-7.41,26.19,26.19,0,0,1,3.31-6.76,31,31,0,0,1,4.93-5.52,34.28,34.28,0,0,1,12.4-6.92,33.44,33.44,0,0,1,6.88-1.35A22.93,22.93,0,0,1,104.71,70.45Z"/><path class="cls-1" d="M120.56,83.33a29.11,29.11,0,1,1,29.11-29.11A29.14,29.14,0,0,1,120.56,83.33Z"/><path class="cls-2" d="M120.56,28.11A26.11,26.11,0,1,1,94.45,54.22a26.14,26.14,0,0,1,26.11-26.11m0-6a32.11,32.11,0,1,0,32.11,32.11,32.11,32.11,0,0,0-32.11-32.11Z"/><path class="cls-1" d="M121.76,33.94s-21.16,5.42-21.16,21.7"/><path class="cls-2" d="M121.76,33.94c-2.25,1.93-4.4,3.51-6.47,5.09s-4,3.09-5.83,4.68a36.6,36.6,0,0,0-4.9,5.14,35.51,35.51,0,0,0-4,6.78,12.23,12.23,0,0,1-.25-8.9,16.77,16.77,0,0,1,2.09-4.13,20.38,20.38,0,0,1,3.05-3.39,22.46,22.46,0,0,1,7.64-4.36A18.63,18.63,0,0,1,121.76,33.94Z"/><path class="cls-1" d="M34.69,134.18A29.11,29.11,0,1,1,63.8,105.07,29.14,29.14,0,0,1,34.69,134.18Z"/><path class="cls-2" d="M34.69,79A26.11,26.11,0,1,1,8.58,105.07,26.14,26.14,0,0,1,34.69,79m0-6A32.11,32.11,0,1,0,66.8,105.07,32.11,32.11,0,0,0,34.69,73Z"/><path class="cls-1" d="M35.89,84.79s-21.16,5.42-21.16,21.7"/><path class="cls-2" d="M35.89,84.79c-2.25,1.93-4.4,3.51-6.47,5.09s-4,3.09-5.83,4.68a36.6,36.6,0,0,0-4.9,5.14,35.51,35.51,0,0,0-4,6.78,12.23,12.23,0,0,1-.25-8.9,16.77,16.77,0,0,1,2.09-4.13,20.38,20.38,0,0,1,3.05-3.39,22.46,22.46,0,0,1,7.64-4.36A18.63,18.63,0,0,1,35.89,84.79Z"/></g></g></svg>