<svg xmlns="http://www.w3.org/2000/svg" viewBox="0 0 107.52 107.52"><defs><style>.cls-1{fill:#0263b2;stroke:#fff;stroke-miterlimit:10;stroke-width:8px;}.cls-2{fill:#324596;}.cls-3{fill:#fff;}</style></defs><title>bubble</title><g id="Layer_2" data-name="Layer 2"><g id="Layer_1-2" data-name="Layer 1"><circle class="cls-1" cx="53.76" cy="53.76" r="49.76"/><path class="cls-2" d="M55.57,21.31S21.82,30,21.82,55.92"/><path class="cls-3" d="M55.57,21.31c-3.68,2.77-7.21,5.14-10.6,7.57a118.83,118.83,0,0,0-9.54,7.43c-.73.65-1.47,1.29-2.14,2s-1.36,1.37-2,2.06a50,50,0,0,0-3.66,4.48,41.1,41.1,0,0,0-3.11,5.11c-1,1.84-1.73,3.82-2.66,6a16.49,16.49,0,0,1-.91-3.36c-.09-.58-.18-1.16-.22-1.75s0-1.17,0-1.77A22.48,22.48,0,0,1,22,42a27.31,27.31,0,0,1,3.37-6.4c.72-1,1.47-1.91,2.27-2.79s1.67-1.7,2.54-2.5a37.75,37.75,0,0,1,18.56-8.72A25.83,25.83,0,0,1,55.57,21.31Z"/></g></g></svg>