<svg xmlns="http://www.w3.org/2000/svg" viewBox="0 0 99.52 99.52"><defs><style>.cls-1{fill:#fff;}</style></defs><title>bubble</title><g id="Layer_2" data-name="Layer 2"><g id="Layer_1-2" data-name="Layer 1"><path class="cls-1" d="M49.76,96.52A46.76,46.76,0,1,1,96.52,49.76,46.81,46.81,0,0,1,49.76,96.52Z"/><path d="M49.76,6A43.76,43.76,0,1,1,6,49.76,43.81,43.81,0,0,1,49.76,6m0-6A49.76,49.76,0,1,0,99.52,49.76,49.76,49.76,0,0,0,49.76,0Z"/><path class="cls-1" d="M51.57,17.31S17.82,26,17.82,51.92"/><path d="M51.57,17.31c-3.5,3.38-6.85,6-10.06,8.62s-6.27,5-9.09,7.51c-1.4,1.25-2.76,2.51-4.06,3.81s-2.51,2.67-3.72,4.11a48.13,48.13,0,0,0-3.45,4.75c-1.16,1.74-2.12,3.66-3.38,5.81a14.87,14.87,0,0,1-1.32-3.41c-.15-.59-.29-1.19-.39-1.8s-.12-1.22-.18-1.84a21.73,21.73,0,0,1,1-7.41,26.19,26.19,0,0,1,3.31-6.76,31,31,0,0,1,4.93-5.52,34.28,34.28,0,0,1,12.4-6.92,33.44,33.44,0,0,1,6.88-1.35A22.93,22.93,0,0,1,51.57,17.31Z"/></g></g></svg>