<svg xmlns="http://www.w3.org/2000/svg" viewBox="0 0 122.43 125.11"><defs><style>.cls-1{fill:#f47a62;}.cls-2{fill:#fff;}</style></defs><title>needle</title><g id="Layer_2" data-name="Layer 2"><g id="Layer_1-2" data-name="Layer 1"><path class="cls-1" d="M122.24,125.11l-24-24c-.37.41-.72.82-1.1,1.2a2,2,0,0,1-3.14,0c-1.73-1.7-3.42-3.43-5.13-5.16l-2.93-3-.5.47L82.16,98c-1.27,1.26-2.34,1.21-3.59-.07-1.64-1.69-3.32-3.35-5-5l-7.8-7.77c-2-2-4-4.05-6-6.07-2.26-2.26-4.54-4.51-6.8-6.77s-4.45-4.48-6.68-6.72c-2.87-2.87-5.76-5.73-8.63-8.6S32,51.34,29.21,48.53q-4-4-7.92-7.92c-.25-.25-.39-.25-.64,0q-2.12,2.18-4.29,4.31a3.2,3.2,0,0,1-1.91,1A3,3,0,0,1,12,40.86q3.25-3.27,6.52-6.51c1.25-1.24,2.51-2.46,3.72-3.64L8.42,16.83c-.74.76-1.45,1.56-2.23,2.29S4.79,20.79,3.62,21A3,3,0,0,1,.48,19.7a2.73,2.73,0,0,1,.39-3.57c2.69-2.78,5.46-5.49,8.19-8.23l7-7A2.91,2.91,0,0,1,20.34,1,2.91,2.91,0,0,1,20.25,5L16.88,8.34,30.72,22.2,33,19.93q3.93-3.94,7.86-7.88a3.1,3.1,0,0,1,4-.38,2.94,2.94,0,0,1,.44,4.23c-.85,1-1.84,1.87-2.76,2.8L40.24,21c1.12,1.06,2.2,2,3.23,3q4.69,4.63,9.35,9.3c3,3,6,6,9,9L72.12,52.69c3,3,6,6,9,9s5.8,5.77,8.69,8.66S95.5,76,98.32,78.89a1.73,1.73,0,0,1,.45,2.19,10.8,10.8,0,0,1-1.52,1.83c-1,1-2,2-3,3l.31.33L102.37,94a2,2,0,0,1,0,3.09c-.39.39-.82.73-1.26,1.12.21.24.31.37.42.48l8.78,8.76q5.86,5.86,11.72,11.73a1.22,1.22,0,0,1,.39.72c0,1.69,0,3.38,0,5.07ZM25.16,36.18,55.53,66.51l10.94-11L36.14,25.21Z"/><path class="cls-2" d="M66.47,55.53l-10.94,11L25.16,36.18l11-11ZM45.78,43.08c-1,.91-1.9,1.87-2.8,2.85a1.7,1.7,0,0,0-.27,2.15,1.85,1.85,0,0,0,1.84,1.07,2.26,2.26,0,0,0,1.19-.54c1-.87,1.91-1.79,2.81-2.74a1.91,1.91,0,0,0,.49-2.15,2.23,2.23,0,0,0-1.93-1.4A6.31,6.31,0,0,0,45.78,43.08Zm10.7,8a1.78,1.78,0,0,0-2.11.29c-1,1-2,1.93-3,2.94a2,2,0,0,0,.14,2.78,2,2,0,0,0,2.7-.07c1-.95,1.95-1.89,2.86-2.89a5.14,5.14,0,0,0,.63-1.28A2.19,2.19,0,0,0,56.49,51.07ZM39.82,34.38a1.76,1.76,0,0,0-2.12.26c-1,.93-2,1.91-2.94,2.9a1.94,1.94,0,0,0,2.65,2.83c1-.93,2-1.91,3-2.94A4.32,4.32,0,0,0,41,36.11,2,2,0,0,0,39.82,34.38Z"/><path class="cls-1" d="M47.13,42.33a6.31,6.31,0,0,0-1.35.75c-1,.91-1.9,1.87-2.8,2.85a1.7,1.7,0,0,0-.27,2.15,1.85,1.85,0,0,0,1.84,1.07,2.26,2.26,0,0,0,1.19-.54c1-.87,1.91-1.79,2.81-2.74a1.91,1.91,0,0,0,.49-2.15A2.23,2.23,0,0,0,47.13,42.33Z"/><path class="cls-1" d="M57.73,52.84a2.19,2.19,0,0,0-1.25-1.77,1.78,1.78,0,0,0-2.11.29c-1,1-2,1.93-3,2.94a2,2,0,0,0,.14,2.78,2,2,0,0,0,2.7-.07c1-.95,1.95-1.89,2.86-2.89A5.14,5.14,0,0,0,57.73,52.84Z"/><path class="cls-1" d="M41,36.11a2,2,0,0,0-1.14-1.73,1.76,1.76,0,0,0-2.12.26c-1,.93-2,1.91-2.94,2.9a1.94,1.94,0,0,0,2.65,2.83c1-.93,2-1.91,3-2.94A4.32,4.32,0,0,0,41,36.11Z"/></g></g></svg>