<svg xmlns="http://www.w3.org/2000/svg" viewBox="0 0 113.04 105.62"><defs><style>.cls-1{fill:#f7daaa;}</style></defs><title>scissors</title><g id="Layer_2" data-name="Layer 2"><g id="Layer_1-2" data-name="Layer 1"><g id="scissors"><path class="cls-1" d="M34.34,50.54c3.38.27,6.65.53,9.91.8,4.18.35,8.35.75,12.54,1a2.77,2.77,0,0,0,1.68-.61c1.2-.91,2.29-2,3.47-2.89a1.08,1.08,0,0,1,1-.11c4.28,2.32,8.53,4.7,12.81,7,3,1.61,5.94,3.16,8.91,4.75,4.6,2.45,9.22,4.89,13.81,7.37,3.82,2.06,7.65,4.12,11.42,6.28A14.92,14.92,0,0,1,113,77c-1-.32-2-.62-3-1C104.49,74,99,72,93.4,70c-7.65-2.73-15.31-5.43-23-8.17C69,61.33,67.51,60.7,66,60.09a28.51,28.51,0,0,0-9.84-2c-4.26-.21-8.52-.63-12.77-1-3.5-.28-7-.56-10.5-.9a3.55,3.55,0,0,0-2.6.78A10.13,10.13,0,0,1,23,59.21c-3.4-.38-6.86-1.36-9-4.07-2.26-2.87-4.89-3.23-8-2.81-1.56.21-3.11.45-4.67.7C.23,53.21-.06,53,0,51.86c.09-1.47.62-1.91,2.07-2.24,2.51-.56,5.09-1.09,6.88-3.18a5.63,5.63,0,0,0,1.18-2.33,9.11,9.11,0,0,1,2.67-5.16c2.64-2.27,5.78-3.6,9.3-3a14.83,14.83,0,0,1,10.61,7,12.2,12.2,0,0,1,1.62,5.81C34.36,49.3,34.34,49.79,34.34,50.54ZM23.4,56a25,25,0,0,0,3-.64c3-1,5.14-4.37,4.69-7.16-.83-5.17-5.93-9.64-11.74-8.75-3.55.54-6.5,3.74-6.07,7.31A10.75,10.75,0,0,0,23.4,56Zm39.94-.1c1.15,0,1.76-.54,1.74-1.57a1.73,1.73,0,0,0-1.61-1.73,2.06,2.06,0,0,0-1.91,1.74A1.72,1.72,0,0,0,63.34,55.86Z"/><path class="cls-1" d="M67.68,49C65.8,48,64,47.11,62.22,46.1a1.52,1.52,0,0,1-.51-1.19c.12-2.64.31-5.27.48-7.91v-.11q.29-5.49.57-11c0-.37,0-.74,0-1.19H61.14c-3.73.07-6.38-2-8.81-4.49-.63-.63-1.1-1.15-2.16-1a2.33,2.33,0,0,1-2.45-1.67,2.26,2.26,0,0,1,.59-2.88c.71-.52.6-1.09.48-1.78-.7-4.08,1.13-9.24,4.95-11.51A10.38,10.38,0,0,1,62.8.73a12.72,12.72,0,0,1,8.12,8.43c1.58,4.91,1.11,9.65-3,13.43a1.34,1.34,0,0,0-.4.86c0,2-.06,3.91,0,5.86.13,5.93.29,11.86.42,17.79A13.89,13.89,0,0,1,67.68,49ZM61.33,21.24l.1.28a17.46,17.46,0,0,0,4-1.52c2.56-1.77,3-4.61,2.85-7.45s-1.87-5.19-4-7A8,8,0,0,0,58,3.41,6.87,6.87,0,0,0,52,10.48a15.39,15.39,0,0,0,1.29,5.34C54.27,18.43,58.3,21.35,61.33,21.24Z"/><path class="cls-1" d="M61.83,61.06c3.07,1.05,6,2,8.82,3.1.57.23.9,1.28,1.14,2,.67,2.08,1.2,4.2,1.84,6.29,1.14,3.74,2.32,7.47,3.46,11.22.89,2.91,1.73,5.84,2.61,8.75s1.75,5.61,2.57,8.43c.44,1.5.77,3,1.15,4.56l-.29.2c-.63-1-1.31-2-1.89-3-.47-.82-.84-1.69-1.25-2.55-1.92-4-3.85-7.94-5.74-11.93C73,85.6,71.84,83,70.64,80.39S68.22,75.13,67,72.51s-2.44-5.08-3.61-7.64C62.83,63.68,62.39,62.45,61.83,61.06Z"/><path class="cls-1" d="M63.34,55.86a1.72,1.72,0,0,1-1.77-1.56,2.06,2.06,0,0,1,1.91-1.74,1.73,1.73,0,0,1,1.61,1.73C65.1,55.33,64.49,55.87,63.34,55.86Z"/></g></g></g></svg>