<svg xmlns="http://www.w3.org/2000/svg" viewBox="0 0 105.49 121.8"><defs><style>.cls-1{fill:#f7daaa;}</style></defs><title>star</title><g id="Layer_2" data-name="Layer 2"><g id="Layer_1-2" data-name="Layer 1"><path class="cls-1" d="M105.49,30.45,58.83,50.35,52.74,0,46.65,50.35,0,30.45,40.56,60.9,0,91.35l46.65-19.9,6.09,50.35,6.09-50.35,46.65,19.9L64.92,60.9ZM88.05,40.52,86.3,41.83l-.12-.16h0l0-.05,0,0h0L86,41.38ZM85,42.82l-1.31,1-.19-.26,1.31-1Zm-.46-.8.13.3L83.15,43l-.13-.3Zm-2.16,2.76-1.31,1-.19-.26,1.31-1Zm-.85-1.48.13.3-1.51.64-.13-.3Zm-1.77,3.44-1.31,1-.19-.26,1.31-1ZM78.5,44.59l.13.3-1.51.64-.13-.3Zm-1.57,3.87.19.26-1.31,1-.19-.26Zm-1.45-2.58.13.3-1.51.64-.13-.3Zm-1.17,4.55.19.26-1.31,1L73,51.41Zm-1.84-3.26.13.3-1.51.64L71,47.8Zm-.78,5.23.19.26-1.31,1-.19-.26Zm-2.23-3.95.13.3-1.51.64-.13-.3Zm-.39,5.91.19.26L68,55.6l-.19-.26Zm-3.74,3.21-.19-.26,1.31-1,.19.26Zm1.11-7.83.13.3-1.51.64-.13-.3ZM27,44.59l1.51.64-.13.3-1.51-.64Zm-7.6-3,0,0,0,.05h0l-.12.16-1.75-1.32,2,.86-.08.19Zm2.43,2.22-1.31-1,.19-.26,1.31,1Zm.53-.84-1.51-.64L21,42l1.51.64Zm2.09,2.81-1.31-1,.19-.26,1.31,1Zm.92-1.52-1.51-.64.13-.3,1.51.64ZM27,47.73l-1.31-1,.19-.26,1.31,1Zm2.62,2-1.31-1,.19-.26,1.31,1ZM30,45.87l1.51.64-.13.3-1.51-.64Zm2.29,5.79-1.31-1,.19-.26,1.31,1Zm.72-4.5,1.51.64-.13.3-1.51-.64Zm1.9,6.47-1.31-1,.19-.26,1.31,1ZM36,48.45l1.51.64-.13.3-1.51-.64Zm1.5,7.15-1.31-1,.19-.26,1.31,1Zm2.62,2-1.31-1,.19-.26,1.31,1Zm.27-6.89L38.91,50l.13-.3,1.51.64Zm-23,30.62L19.19,80l.12.16h0l0,.05,0,0h0l.08.19ZM20.5,79l1.31-1,.19.26-1.31,1Zm.46.8-.13-.3,1.51-.64.13.3ZM23.12,77l1.31-1,.19.26-1.31,1ZM24,78.5l-.13-.3,1.51-.64.13.3Zm1.77-3.44,1.31-1,.19.26-1.31,1ZM27,77.21l-.13-.3,1.51-.64.13.3Zm1.57-3.87-.19-.26,1.31-1,.19.26ZM30,75.93l-.13-.3L31.37,75l.13.3Zm1.17-4.55L31,71.12l1.31-1,.19.26ZM33,74.64l-.13-.3,1.51-.64.13.3Zm.78-5.23-.19-.26,1.31-1,.19.26ZM36,73.36l-.13-.3,1.51-.64.13.3Zm.39-5.91-.19-.26,1.31-1,.19.26Zm3.74-3.21.19.26-1.31,1-.19-.26ZM39,72.07l-.13-.3,1.51-.64.13.3Zm2.61-13.78,1.31,1-.19.26-1.31-1Zm-.19,5,1.31-1,.19.26-1.31,1ZM42,70.79l-.13-.3,1.51-.64.13.3ZM43.43,52l-1.51-.64L42,51l1.51.64Zm.65,9.33.52-.39-.52-.39.19-.26.86.64-.86.64Zm1,8.21-.13-.3,1.51-.64.13.3Zm1.38-16.26-1.51-.64.13-.3,1.51.64Zm10.11-1.67-.32,0L56,50l.32,0Zm-.39-3.25-.32,0-.2-1.63.32,0Zm-.39-3.25-.32,0-.2-1.63.32,0Zm-.39-3.25-.32,0-.2-1.63.32,0ZM55,38.57l-.32,0L54.46,37l.32,0Zm-.39-3.25-.32,0-.2-1.63.32,0Zm-.39-3.25-.32,0-.2-1.63.32,0Zm-.39-3.25-.32,0-.2-1.63.32,0Zm-.39-3.25-.32,0L52.88,24l.32,0Zm-.82-4.11.16,0,.16,0,.1.85-.2,0h-.12l-.2,0Zm-.3,2.48.32,0-.2,1.63-.32,0Zm-.39,3.25.32,0L52,28.85l-.32,0Zm-.39,3.25.32,0-.2,1.63-.32,0Zm-.39,3.25.32,0-.2,1.63-.32,0Zm-.39,3.25L51,37l-.2,1.63-.32,0Zm-.39,3.25.32,0-.2,1.63-.32,0Zm-.39,3.25.32,0L50,45.11l-.32,0Zm-.39,3.25.32,0-.2,1.63-.32,0Zm-.39,3.25.32,0-.2,1.63-.32,0Zm-1.06,3.64.59.25.08-.64.32,0-.13,1.07-1-.42ZM48.67,68l-.59.25-.13-.3,1-.42.13,1.07-.32,0Zm.27,2.27.32,0,.2,1.63-.32,0Zm.39,3.25.32,0,.2,1.63-.32,0Zm.39,3.25.32,0,.2,1.63-.32,0ZM50.12,80l.32,0,.2,1.63-.32,0Zm.39,3.25.32,0,.2,1.63-.32,0Zm.39,3.25.32,0,.2,1.63-.32,0Zm.39,3.25.32,0,.2,1.63-.32,0ZM51.69,93,52,93l.2,1.63-.32,0Zm.39,3.25.32,0,.2,1.63-.32,0Zm.66,5.43-.26-2.18.2,0h.12l.2,0Zm.46-3.8-.32,0,.2-1.63.32,0Zm.39-3.25-.32,0,.2-1.63.32,0ZM54,91.37l-.32,0,.2-1.63.32,0Zm.39-3.25-.32,0,.2-1.63.32,0Zm.39-3.25-.32,0,.2-1.63.32,0Zm.39-3.25-.32,0,.2-1.63.32,0Zm.39-3.25-.32,0,.2-1.63.32,0ZM56,75.11l-.32,0,.2-1.63.32,0Zm.39-3.25-.32,0,.2-1.63.32,0Zm1.06-3.64L56.82,68l-.08.64-.32,0,.13-1.07,1,.42ZM56.55,54.3l-.13-1.07.32,0,.08.64.59-.25.13.3Zm22,22.91L77,76.57l.13-.3,1.51.64Zm7.6,3,0,0,0-.05h0L86.3,80l1.75,1.32-2-.86.08-.19ZM83.68,78,85,79l-.19.26-1.31-1Zm-.53.84,1.51.64-.13.3L83,79.14ZM81.06,76l1.31,1-.19.26-1.31-1Zm-.92,1.52,1.51.64-.13.3L80,77.86Zm-1.7-3.49,1.31,1-.19.26-1.31-1Zm-2.62-2,1.31,1-.19.26-1.31-1Zm-.33,3.82L74,75.29l.13-.3,1.51.64ZM73.2,70.14l1.31,1-.19.26L73,70.4Zm-.72,4.5L71,74l.13-.3,1.51.64Zm-1.9-6.47,1.31,1-.19.26-1.31-1Zm-1.12,5.19L68,72.72l.13-.3,1.51.64ZM68,66.21l1.31,1-.19.26-1.31-1Zm-2.62-2,1.31,1-.19.26-1.31-1Zm-.27,6.89,1.51.64-.13.3-1.51-.64ZM64,58.55l-1.31,1-.19-.26,1.31-1ZM63.44,51l.13.3L62.06,52l-.13-.3Zm-3,1.29.13.3L59,53.24l-.13-.3Zm0,17.2-1.51-.64.13-.3,1.51.64Zm1-8.21-.19.26-.86-.64.86-.64.19.26-.52.39Zm2,9.5-1.51-.64.13-.3,1.51.64Zm.4-7.27-1.31-1,.19-.26,1.31,1Z"/></g></g></svg>