<svg xmlns="http://www.w3.org/2000/svg" viewBox="0 0 281.39 60.11"><defs><style>.cls-1,.cls-3{fill:#fff;}.cls-2{fill:#0386f2;}.cls-3{stroke:#0386f2;stroke-miterlimit:10;stroke-width:6px;}</style></defs><title>wand</title><g id="Layer_2" data-name="Layer 2"><g id="Layer_1-2" data-name="Layer 1"><path class="cls-1" d="M198.68,33.49c.26,1.36-1.89,2.67-4.83,3a22.72,22.72,0,0,0,1.07,2.73c2.77-.74,5.61-.33,6.38.93s-.81,2.91-3.53,3.72a29.85,29.85,0,0,0,2.09,2.45c2.4-1.2,5.28-1.3,6.51-.22s.33,3-2,4.21q1.4,1,2.94,2c1.86-1.58,4.61-2.19,6.21-1.36s1.44,2.79-.32,4.42q1.75.76,3.6,1.42a5.33,5.33,0,0,1,5.48-2.4c1.86.52,2.46,2.45,1.37,4.33q2,.43,4,.73A4.23,4.23,0,0,1,232,56.14a3.3,3.3,0,0,1,3,3.93c.69,0,1.38,0,2.08,0s1.39,0,2.08,0a3.3,3.3,0,0,1,3-3.93,4.23,4.23,0,0,1,4.38,3.28q2-.3,4-.73c-1.09-1.88-.49-3.81,1.37-4.33a5.33,5.33,0,0,1,5.48,2.4q1.86-.65,3.6-1.42c-1.76-1.62-1.92-3.58-.32-4.41s4.35-.22,6.21,1.35q1.54-1,2.95-2c-2.33-1.26-3.23-3.13-2-4.21s4.11-1,6.51.22a30.14,30.14,0,0,0,2.09-2.45c-2.73-.81-4.31-2.45-3.53-3.72s3.61-1.67,6.38-.93a22.66,22.66,0,0,0,1.07-2.73c-2.94-.3-5.1-1.61-4.83-3s2.84-2.25,5.8-2c0-.47.05-.94.05-1.41s0-.95-.05-1.41c-3,.23-5.54-.66-5.8-2s1.89-2.67,4.83-3a22.71,22.71,0,0,0-1.07-2.73c-2.77.74-5.61.33-6.38-.93s.81-2.91,3.53-3.72a29.86,29.86,0,0,0-2.09-2.45c-2.39,1.2-5.28,1.3-6.51.22s-.33-3,2-4.21q-1.4-1-2.95-2c-1.86,1.58-4.61,2.19-6.21,1.36s-1.44-2.79.32-4.42q-1.75-.76-3.61-1.42a5.33,5.33,0,0,1-5.48,2.4c-1.86-.52-2.46-2.45-1.37-4.33q-2-.43-4-.73A4.23,4.23,0,0,1,242.17,4a3.3,3.3,0,0,1-3-3.94c-.69,0-1.38,0-2.08,0S235.72,0,235,0A3.29,3.29,0,0,1,232,4,4.23,4.23,0,0,1,227.67.69q-2,.3-4,.73c1.09,1.88.49,3.81-1.37,4.33a5.33,5.33,0,0,1-5.48-2.4q-1.86.65-3.6,1.42c1.76,1.62,1.92,3.58.32,4.42s-4.35.22-6.21-1.36q-1.54,1-2.95,2c2.33,1.26,3.23,3.13,2,4.21s-4.11,1-6.51-.22a30,30,0,0,0-2.09,2.45c2.73.81,4.31,2.45,3.53,3.72s-3.61,1.67-6.38.93a22.72,22.72,0,0,0-1.07,2.73c2.94.3,5.1,1.61,4.83,3s-2.84,2.25-5.8,2c0,.47-.05.94-.05,1.41s0,.94.05,1.41C195.84,31.24,198.42,32.13,198.68,33.49Zm3.94-3.43c0-12.91,15.47-23.41,34.49-23.41s34.49,10.5,34.49,23.41-15.47,23.41-34.49,23.41S202.62,43,202.62,30.05Z"/><path class="cls-2" d="M237.11,0c-.7,0-1.39,0-2.08,0A3.29,3.29,0,0,1,232,4h-.33a4.25,4.25,0,0,1-4-3.29q-2,.3-4,.73c1.09,1.88.49,3.81-1.37,4.33a3.69,3.69,0,0,1-1,.13,5.61,5.61,0,0,1-4.48-2.53q-1.86.65-3.6,1.42c1.76,1.62,1.92,3.58.32,4.42a3.73,3.73,0,0,1-1.72.37,7.27,7.27,0,0,1-4.49-1.73q-1.54,1-2.95,2c2.33,1.26,3.23,3.13,2,4.21a3.91,3.91,0,0,1-2.57.75,9.08,9.08,0,0,1-3.94-1,30,30,0,0,0-2.09,2.45c2.73.81,4.31,2.45,3.53,3.72-.51.84-1.93,1.3-3.64,1.3a10.77,10.77,0,0,1-2.74-.37,22.72,22.72,0,0,0-1.07,2.73c2.94.3,5.1,1.61,4.83,3s-2.33,2.06-4.89,2.06q-.45,0-.91,0c0,.47-.05.94-.05,1.41s0,.94.05,1.41c.31,0,.61,0,.91,0,2.56,0,4.65.84,4.89,2.06s-1.89,2.67-4.83,3a22.71,22.71,0,0,0,1.07,2.73,10.77,10.77,0,0,1,2.75-.37c1.71,0,3.12.46,3.63,1.3.77,1.26-.81,2.91-3.53,3.72a29.84,29.84,0,0,0,2.09,2.45,9.08,9.08,0,0,1,3.94-1,3.91,3.91,0,0,1,2.57.75c1.23,1.08.33,3-2,4.21q1.4,1,2.94,2a7.27,7.27,0,0,1,4.49-1.73,3.73,3.73,0,0,1,1.72.37c1.6.83,1.44,2.79-.32,4.42q1.75.76,3.6,1.42a5.6,5.6,0,0,1,4.48-2.53,3.69,3.69,0,0,1,1,.13c1.86.52,2.46,2.45,1.37,4.33q2,.43,4,.73a4.25,4.25,0,0,1,4-3.29H232a3.3,3.3,0,0,1,3,3.93c.69,0,1.38,0,2.08,0s1.39,0,2.08,0a3.3,3.3,0,0,1,3-3.93h.33a4.25,4.25,0,0,1,4,3.29q2-.3,4-.73c-1.09-1.88-.49-3.81,1.37-4.33a3.7,3.7,0,0,1,1-.13,5.61,5.61,0,0,1,4.48,2.53q1.86-.65,3.6-1.42c-1.76-1.62-1.92-3.58-.32-4.41a3.73,3.73,0,0,1,1.72-.37,7.27,7.27,0,0,1,4.49,1.73q1.54-1,2.95-2c-2.33-1.26-3.23-3.13-2-4.21a3.91,3.91,0,0,1,2.57-.75,9.07,9.07,0,0,1,3.94,1,30.15,30.15,0,0,0,2.09-2.45c-2.73-.81-4.31-2.45-3.53-3.72.51-.84,1.93-1.3,3.64-1.3a10.75,10.75,0,0,1,2.74.37,22.66,22.66,0,0,0,1.07-2.73c-2.94-.3-5.1-1.61-4.83-3s2.33-2.06,4.89-2.06q.45,0,.91,0c0-.47.05-.94.05-1.41s0-.95-.05-1.41c-.31,0-.61,0-.91,0-2.56,0-4.65-.84-4.89-2.05s1.89-2.67,4.83-3a22.7,22.7,0,0,0-1.07-2.73,10.76,10.76,0,0,1-2.74.37c-1.71,0-3.12-.46-3.64-1.3-.77-1.26.81-2.91,3.53-3.72a29.87,29.87,0,0,0-2.09-2.45,9.08,9.08,0,0,1-3.94,1,3.91,3.91,0,0,1-2.57-.75c-1.23-1.09-.33-3,2-4.21q-1.4-1-2.95-2a7.27,7.27,0,0,1-4.49,1.73,3.73,3.73,0,0,1-1.72-.37c-1.6-.83-1.44-2.79.32-4.42q-1.75-.76-3.61-1.42a5.61,5.61,0,0,1-4.48,2.53,3.69,3.69,0,0,1-1-.13c-1.86-.52-2.46-2.45-1.37-4.33q-2-.43-4-.73a4.26,4.26,0,0,1-4,3.3h-.33a3.3,3.3,0,0,1-3-3.94c-.69,0-1.38,0-2.08,0Zm0,53.46c-19,0-34.49-10.5-34.49-23.41S218.09,6.65,237.11,6.65s34.49,10.5,34.49,23.41-15.47,23.41-34.49,23.41Z"/><path class="cls-1" d="M2.93,30.8c.13.68-.94,1.33-2.42,1.49A11.36,11.36,0,0,0,1,33.65c1.39-.37,2.8-.17,3.19.47S3.83,35.57,2.47,36a14.92,14.92,0,0,0,1,1.22c1.2-.6,2.64-.65,3.25-.11s.16,1.48-1,2.11q.7.52,1.47,1a3.12,3.12,0,0,1,3.1-.68c.8.42.72,1.4-.16,2.21q.87.38,1.8.71a2.66,2.66,0,0,1,2.74-1.2,1.37,1.37,0,0,1,.69,2.16q1,.21,2,.36a2.12,2.12,0,0,1,2.19-1.64,1.65,1.65,0,0,1,1.49,2l1,0,1,0a1.65,1.65,0,0,1,1.49-2,2.11,2.11,0,0,1,2.19,1.64q1-.15,2-.36a1.37,1.37,0,0,1,.68-2.16,2.66,2.66,0,0,1,2.74,1.2q.93-.33,1.8-.71c-.88-.81-1-1.79-.16-2.21a3.12,3.12,0,0,1,3.1.68q.77-.48,1.47-1c-1.16-.63-1.61-1.56-1-2.11s2.06-.49,3.25.11a15.07,15.07,0,0,0,1-1.22c-1.36-.4-2.15-1.23-1.77-1.86s1.8-.84,3.19-.47a11.33,11.33,0,0,0,.54-1.37c-1.47-.15-2.55-.81-2.42-1.48s1.42-1.12,2.9-1c0-.23,0-.47,0-.71s0-.47,0-.71c-1.48.11-2.77-.33-2.9-1s.95-1.34,2.42-1.49a11.36,11.36,0,0,0-.54-1.37c-1.39.37-2.8.17-3.19-.47s.4-1.46,1.77-1.86a14.93,14.93,0,0,0-1-1.22c-1.2.6-2.64.65-3.25.11s-.16-1.48,1-2.11q-.7-.52-1.47-1a3.12,3.12,0,0,1-3.1.68c-.8-.42-.72-1.4.16-2.21q-.87-.38-1.8-.71a2.66,2.66,0,0,1-2.74,1.2,1.37,1.37,0,0,1-.69-2.16q-1-.21-2-.36A2.12,2.12,0,0,1,24.67,16a1.65,1.65,0,0,1-1.49-2l-1,0-1,0a1.65,1.65,0,0,1-1.49,2,2.11,2.11,0,0,1-2.19-1.64q-1,.15-2,.36a1.37,1.37,0,0,1-.69,2.16A2.66,2.66,0,0,1,12,15.73q-.93.33-1.8.71c.88.81,1,1.79.16,2.21A3.12,3.12,0,0,1,7.24,18q-.77.48-1.47,1c1.16.63,1.61,1.56,1,2.11s-2.06.49-3.25-.11a15,15,0,0,0-1,1.22c1.36.4,2.15,1.23,1.77,1.86s-1.8.84-3.19.47a11.36,11.36,0,0,0-.54,1.37c1.47.15,2.55.81,2.42,1.48s-1.42,1.12-2.9,1c0,.23,0,.47,0,.71s0,.47,0,.71C1.5,29.67,2.79,30.12,2.93,30.8Zm2-1.72c0-6.45,7.74-11.7,17.24-11.7s17.24,5.25,17.24,11.7-7.74,11.7-17.24,11.7S4.9,35.53,4.9,29.08Z"/><path class="cls-2" d="M22.14,14.05l-1,0a1.65,1.65,0,0,1-1.49,2h-.17a2.13,2.13,0,0,1-2-1.65q-1,.15-2,.36a1.37,1.37,0,0,1-.69,2.16,1.85,1.85,0,0,1-.5.07A2.8,2.8,0,0,1,12,15.73q-.93.33-1.8.71c.88.81,1,1.79.16,2.21a1.86,1.86,0,0,1-.86.19A3.64,3.64,0,0,1,7.24,18q-.77.48-1.47,1c1.16.63,1.61,1.56,1,2.11a2,2,0,0,1-1.28.38,4.54,4.54,0,0,1-2-.48,15,15,0,0,0-1,1.22c1.36.4,2.15,1.23,1.77,1.86a2.15,2.15,0,0,1-1.82.65A5.39,5.39,0,0,1,1,24.51a11.37,11.37,0,0,0-.54,1.37c1.47.15,2.55.81,2.42,1.48s-1.16,1-2.44,1l-.46,0c0,.23,0,.47,0,.71s0,.47,0,.71l.46,0c1.28,0,2.33.42,2.44,1S2,32.13.51,32.28A11.37,11.37,0,0,0,1,33.65a5.38,5.38,0,0,1,1.37-.18,2.15,2.15,0,0,1,1.82.65c.39.63-.4,1.45-1.77,1.86a14.93,14.93,0,0,0,1,1.22,4.54,4.54,0,0,1,2-.48,2,2,0,0,1,1.29.38c.61.54.16,1.48-1,2.11q.7.52,1.47,1a3.64,3.64,0,0,1,2.24-.86,1.86,1.86,0,0,1,.86.19c.8.42.72,1.4-.16,2.21q.87.38,1.8.71a2.8,2.8,0,0,1,2.24-1.27,1.84,1.84,0,0,1,.5.07,1.37,1.37,0,0,1,.69,2.16q1,.21,2,.36a2.13,2.13,0,0,1,2-1.65h.17a1.65,1.65,0,0,1,1.49,2l1,0,1,0a1.65,1.65,0,0,1,1.49-2h.17a2.13,2.13,0,0,1,2,1.65q1-.15,2-.36a1.37,1.37,0,0,1,.68-2.16,1.85,1.85,0,0,1,.5-.07,2.8,2.8,0,0,1,2.24,1.27q.93-.33,1.8-.71c-.88-.81-1-1.79-.16-2.21a1.87,1.87,0,0,1,.86-.19,3.63,3.63,0,0,1,2.24.86q.77-.48,1.47-1c-1.16-.63-1.61-1.56-1-2.11a2,2,0,0,1,1.29-.38,4.54,4.54,0,0,1,2,.48,15.09,15.09,0,0,0,1-1.22c-1.36-.4-2.15-1.23-1.77-1.86a2.15,2.15,0,0,1,1.82-.65,5.38,5.38,0,0,1,1.37.18,11.33,11.33,0,0,0,.54-1.37c-1.47-.15-2.55-.81-2.42-1.48s1.17-1,2.45-1l.45,0c0-.23,0-.47,0-.71s0-.47,0-.71l-.46,0c-1.28,0-2.33-.42-2.44-1s.95-1.33,2.42-1.49a11.35,11.35,0,0,0-.54-1.37,5.38,5.38,0,0,1-1.37.18A2.15,2.15,0,0,1,40,24c-.39-.63.4-1.46,1.77-1.86a14.92,14.92,0,0,0-1-1.22,4.54,4.54,0,0,1-2,.48,2,2,0,0,1-1.29-.38c-.61-.54-.16-1.48,1-2.11q-.7-.52-1.47-1a3.63,3.63,0,0,1-2.24.86,1.86,1.86,0,0,1-.86-.19c-.8-.42-.72-1.4.16-2.21q-.87-.38-1.8-.71A2.8,2.8,0,0,1,30.06,17a1.84,1.84,0,0,1-.5-.07,1.37,1.37,0,0,1-.69-2.16q-1-.21-2-.36a2.13,2.13,0,0,1-2,1.65h-.17a1.65,1.65,0,0,1-1.49-2l-1,0Zm0,26.73c-9.51,0-17.24-5.25-17.24-11.7s7.74-11.7,17.24-11.7,17.24,5.25,17.24,11.7-7.74,11.7-17.24,11.7Z"/><line class="cls-3" x1="203.9" y1="29" x2="40.97" y2="29"/></g></g></svg>